<svg width="38" height="39" viewBox="0 0 38 39" fill="none" xmlns="http://www.w3.org/2000/svg">
<path d="M19 34.4598C22.9677 34.4598 26.7728 32.8837 29.5784 30.0781C32.3839 27.2726 33.9601 23.4674 33.9601 19.4998C33.9601 15.5322 32.3839 11.727 29.5784 8.92149C26.7728 6.11594 22.9677 4.5398 19 4.5398C15.0324 4.5398 11.2273 6.11594 8.42173 8.92149C5.61619 11.727 4.04005 15.5322 4.04005 19.4998C4.04005 23.4674 5.61619 27.2726 8.42173 30.0781C11.2273 32.8837 15.0324 34.4598 19 34.4598ZM19 0.799805C21.4558 0.799805 23.8874 1.28349 26.1562 2.22326C28.425 3.16302 30.4865 4.54045 32.2229 6.27691C33.9594 8.01336 35.3368 10.0748 36.2766 12.3436C37.2164 14.6124 37.7001 17.0441 37.7001 19.4998C37.7001 24.4594 35.7299 29.2158 32.2229 32.7227C28.716 36.2296 23.9596 38.1998 19 38.1998C8.65895 38.1998 0.300049 29.7848 0.300049 19.4998C0.300049 14.5403 2.27022 9.78384 5.77715 6.27691C9.28408 2.76998 14.0405 0.799805 19 0.799805ZM19.9351 10.1498V19.9673L28.35 24.9602L26.9475 27.2603L17.1301 21.3698V10.1498H19.9351Z" fill="url(#paint0_linear_438_719)"/>
<defs>
<linearGradient id="paint0_linear_438_719" x1="2.80537" y1="28.8498" x2="35.1947" y2="10.1498" gradientUnits="userSpaceOnUse">
<stop stop-color="#3D73EB"/>
<stop offset="1" stop-color="#DE8FFF"/>
</linearGradient>
</defs>
</svg>
