<svg width="33" height="29" viewBox="0 0 33 29" fill="none" xmlns="http://www.w3.org/2000/svg">
<path d="M24.1667 24.0588C24.1667 26.2688 21.9267 28.0588 19.1667 28.0588C16.4067 28.0588 14.1667 26.2688 14.1667 24.0588C14.1667 21.8488 16.4067 20.0588 19.1667 20.0588C21.9267 20.0588 24.1667 21.8488 24.1667 24.0588Z" fill="url(#paint0_linear_438_733)"/>
<path fill-rule="evenodd" clip-rule="evenodd" d="M24.1667 4.05879V24.0588H22.1667V4.05879H24.1667Z" fill="url(#paint1_linear_438_733)"/>
<path d="M22.1667 3.69879C22.167 3.23661 22.3274 2.78878 22.6205 2.43146C22.9137 2.07414 23.3215 1.82938 23.7747 1.73879L29.7747 0.538792C30.0648 0.480819 30.3641 0.4879 30.6511 0.559527C30.938 0.631153 31.2056 0.765541 31.4344 0.953008C31.6631 1.14048 31.8475 1.37635 31.9741 1.64365C32.1008 1.91095 32.1666 2.20301 32.1667 2.49879V6.05879L22.1667 8.05879V3.69879Z" fill="url(#paint2_linear_438_733)"/>
<path fill-rule="evenodd" clip-rule="evenodd" d="M0.166748 21.0588C0.166748 20.7936 0.272105 20.5392 0.459641 20.3517C0.647178 20.1641 0.901532 20.0588 1.16675 20.0588H8.16675C8.43196 20.0588 8.68632 20.1641 8.87385 20.3517C9.06139 20.5392 9.16675 20.7936 9.16675 21.0588C9.16675 21.324 9.06139 21.5784 8.87385 21.7659C8.68632 21.9534 8.43196 22.0588 8.16675 22.0588H1.16675C0.901532 22.0588 0.647178 21.9534 0.459641 21.7659C0.272105 21.5784 0.166748 21.324 0.166748 21.0588ZM0.166748 13.0588C0.166748 12.7936 0.272105 12.5392 0.459641 12.3517C0.647178 12.1641 0.901532 12.0588 1.16675 12.0588H16.1667C16.432 12.0588 16.6863 12.1641 16.8739 12.3517C17.0614 12.5392 17.1667 12.7936 17.1667 13.0588C17.1667 13.324 17.0614 13.5784 16.8739 13.7659C16.6863 13.9534 16.432 14.0588 16.1667 14.0588H1.16675C0.901532 14.0588 0.647178 13.9534 0.459641 13.7659C0.272105 13.5784 0.166748 13.324 0.166748 13.0588ZM0.166748 5.05879C0.166748 4.79358 0.272105 4.53922 0.459641 4.35169C0.647178 4.16415 0.901532 4.05879 1.16675 4.05879H16.1667C16.432 4.05879 16.6863 4.16415 16.8739 4.35169C17.0614 4.53922 17.1667 4.79358 17.1667 5.05879C17.1667 5.32401 17.0614 5.57836 16.8739 5.7659C16.6863 5.95344 16.432 6.05879 16.1667 6.05879H1.16675C0.901532 6.05879 0.647178 5.95344 0.459641 5.7659C0.272105 5.57836 0.166748 5.32401 0.166748 5.05879Z" fill="url(#paint3_linear_438_733)"/>
<defs>
<linearGradient id="paint0_linear_438_733" x1="2.31034" y1="21.1691" x2="27.8035" y2="4.07869" gradientUnits="userSpaceOnUse">
<stop stop-color="#3D73EB"/>
<stop offset="1" stop-color="#DE8FFF"/>
</linearGradient>
<linearGradient id="paint1_linear_438_733" x1="2.31034" y1="21.1691" x2="27.8035" y2="4.07869" gradientUnits="userSpaceOnUse">
<stop stop-color="#3D73EB"/>
<stop offset="1" stop-color="#DE8FFF"/>
</linearGradient>
<linearGradient id="paint2_linear_438_733" x1="2.31034" y1="21.1691" x2="27.8035" y2="4.07869" gradientUnits="userSpaceOnUse">
<stop stop-color="#3D73EB"/>
<stop offset="1" stop-color="#DE8FFF"/>
</linearGradient>
<linearGradient id="paint3_linear_438_733" x1="2.31034" y1="21.1691" x2="27.8035" y2="4.07869" gradientUnits="userSpaceOnUse">
<stop stop-color="#3D73EB"/>
<stop offset="1" stop-color="#DE8FFF"/>
</linearGradient>
</defs>
</svg>
