<svg width="48" height="36" viewBox="0 0 48 36" fill="none" xmlns="http://www.w3.org/2000/svg">
<path d="M39.9896 3.4375C40.3792 3.4375 40.7527 3.59224 41.0282 3.86769C41.3036 4.14313 41.4584 4.51671 41.4584 4.90625V26.9375H6.20837V4.90625C6.20837 4.51671 6.36312 4.14313 6.63856 3.86769C6.91401 3.59224 7.28759 3.4375 7.67712 3.4375H39.9896ZM7.67712 0.5C6.50851 0.5 5.38777 0.964229 4.56143 1.79056C3.7351 2.61689 3.27087 3.73764 3.27087 4.90625V29.875H44.3959V4.90625C44.3959 3.73764 43.9316 2.61689 43.1053 1.79056C42.279 0.964229 41.1582 0.5 39.9896 0.5H7.67712ZM0.333374 31.3438H47.3334C47.3334 32.5124 46.8691 33.6331 46.0428 34.4594C45.2165 35.2858 44.0957 35.75 42.9271 35.75H4.73962C3.57101 35.75 2.45027 35.2858 1.62393 34.4594C0.797603 33.6331 0.333374 32.5124 0.333374 31.3438H0.333374Z" fill="url(#paint0_linear_438_711)"/>
<defs>
<linearGradient id="paint0_linear_438_711" x1="3.48178" y1="26.9375" x2="37.5589" y2="0.704942" gradientUnits="userSpaceOnUse">
<stop stop-color="#3D73EB"/>
<stop offset="1" stop-color="#DE8FFF"/>
</linearGradient>
</defs>
</svg>
