<svg width="25" height="24" viewBox="0 0 25 24" fill="none" xmlns="http://www.w3.org/2000/svg">
<g id="Calque 2">
<g id="Group">
<path id="Vector" d="M12.2651 0C9.83878 0.000671542 7.46711 0.70503 5.45001 2.02401C3.43291 3.343 1.86095 5.21738 0.9329 7.41015C0.00485201 9.60292 -0.237612 12.0156 0.236167 14.3432C0.709945 16.6707 1.87869 18.8086 3.59462 20.4865C5.31055 22.1644 7.49661 23.3069 9.87639 23.7697C12.2562 24.2324 14.7228 23.9946 16.9644 23.0862C19.206 22.1779 21.1219 20.6398 22.4698 18.6665C23.8177 16.6932 24.5372 14.3732 24.5372 12C24.5335 8.81792 23.2393 5.76724 20.9385 3.51749C18.6378 1.26774 15.5184 0.00269617 12.2651 0ZM12.2651 21.966C10.2509 21.9654 8.28208 21.3806 6.6076 20.2856C4.93311 19.1906 3.62813 17.6347 2.85763 15.8144C2.08713 13.9941 1.88572 11.9912 2.27884 10.0589C2.67197 8.1267 3.64199 6.35184 5.06626 4.95874C6.49054 3.56564 8.30513 2.61686 10.2806 2.23234C12.2561 1.84782 14.3038 2.04483 16.1649 2.79846C18.0259 3.55209 19.6167 4.8285 20.7362 6.46633C21.8557 8.10415 22.4536 10.0299 22.4542 12C22.4515 14.6423 21.3771 17.1757 19.4669 19.0441C17.5566 20.9125 14.9666 21.9633 12.2651 21.966Z" fill="url(#paint0_linear_419_308)"/>
<path id="Vector_2" d="M17.8892 6.50243C17.7764 6.39206 17.6424 6.30451 17.495 6.24477C17.3476 6.18504 17.1896 6.1543 17.03 6.1543C16.8704 6.1543 16.7124 6.18504 16.565 6.24477C16.4175 6.30451 16.2836 6.39206 16.1708 6.50243L12.2652 10.3225L8.36316 6.50243C8.13528 6.27954 7.82621 6.15432 7.50394 6.15432C7.18167 6.15432 6.8726 6.27954 6.64472 6.50243C6.41684 6.72532 6.28882 7.02762 6.28882 7.34284C6.28882 7.65805 6.41684 7.96035 6.64472 8.18324L10.5503 11.9999L6.64472 15.8199C6.41684 16.0428 6.28882 16.3451 6.28882 16.6603C6.28882 16.9755 6.41684 17.2778 6.64472 17.5007C6.8726 17.7236 7.18167 17.8488 7.50394 17.8488C7.82621 17.8488 8.13528 17.7236 8.36316 17.5007L12.2652 13.6807L16.1708 17.5007C16.3986 17.7236 16.7077 17.8488 17.03 17.8488C17.3522 17.8488 17.6613 17.7236 17.8892 17.5007C18.1171 17.2778 18.2451 16.9755 18.2451 16.6603C18.2451 16.3451 18.1171 16.0428 17.8892 15.8199L13.9837 11.9999L17.8892 8.18324C18.002 8.07288 18.0915 7.94186 18.1526 7.79767C18.2137 7.65347 18.2451 7.49892 18.2451 7.34284C18.2451 7.18676 18.2137 7.03221 18.1526 6.88801C18.0915 6.74381 18.002 6.61279 17.8892 6.50243Z" fill="url(#paint1_linear_419_308)"/>
</g>
</g>
<defs>
<linearGradient id="paint0_linear_419_308" x1="1.64368" y1="18" x2="22.6557" y2="5.59716" gradientUnits="userSpaceOnUse">
<stop stop-color="#3D73EB"/>
<stop offset="1" stop-color="#DE8FFF"/>
</linearGradient>
<linearGradient id="paint1_linear_419_308" x1="7.08974" y1="14.9252" x2="17.3283" y2="8.88163" gradientUnits="userSpaceOnUse">
<stop stop-color="#3D73EB"/>
<stop offset="1" stop-color="#DE8FFF"/>
</linearGradient>
</defs>
</svg>
