<svg xmlns="http://www.w3.org/2000/svg" width="28" height="18" viewBox="0 0 28 18" fill="none">
<path fill-rule="evenodd" clip-rule="evenodd" d="M1.73237 3.07052C0.913681 3.07052 0.25 2.40684 0.25 1.58815C0.25 0.769454 0.913681 0.105774 1.73237 0.105774H26.5176C27.3363 0.105774 28 0.769454 28 1.58815C28 2.40684 27.3363 3.07052 26.5176 3.07052H1.73237ZM0.25 9C0.25 9.8187 0.91368 10.4824 1.73237 10.4824H26.5176C27.3363 10.4824 28 9.8187 28 9C28 8.18131 27.3363 7.51763 26.5176 7.51763H1.73237C0.913681 7.51763 0.25 8.18131 0.25 9ZM0.25 16.4119C0.25 17.2306 0.913681 17.8942 1.73237 17.8942H26.5176C27.3363 17.8942 28 17.2306 28 16.4119C28 15.5932 27.3363 14.9295 26.5176 14.9295H1.73237C0.913681 14.9295 0.25 15.5932 0.25 16.4119Z" fill="#A392F6"/>
</svg>